HIERARCHY
ROOT simHips
{
  OFFSET 6.13146 95.3961 -0.669452
  CHANNELS 6 Xposition Yposition Zposition Zrotation Xrotation Yrotation
  JOINT simSpine
  {
    OFFSET -0.000360269 21.3001 -0.0169217
    CHANNELS 3 Zrotation Xrotation Yrotation
    JOINT simLeftArm
    {
      OFFSET 13.5181 21.3012 -2.3511e-005
      CHANNELS 3 Zrotation Xrotation Yrotation
      JOINT simLeftForeArm
      {
        OFFSET 24.5783 0 -6.3921e-005
        CHANNELS 3 Zrotation Xrotation Yrotation
        JOINT simLeftHand
        {
          OFFSET 24.5783 0 0
          CHANNELS 3 Zrotation Xrotation Yrotation
          End Site
          {
            OFFSET 7.32568 1.52588e-005 0.0169305
          }
        }
      }
    }
    JOINT simHead
    {
      OFFSET 0 27.4458 -0.00488811
      CHANNELS 3 Zrotation Xrotation Yrotation
      End Site
      {
        OFFSET 0 0 0
      }
    }
    JOINT simRightArm
    {
      OFFSET -13.5174 21.3012 -1.52733e-005
      CHANNELS 3 Zrotation Xrotation Yrotation
      JOINT simRightForeArm
      {
        OFFSET -24.5783 -0.000552281 0.000112897
        CHANNELS 3 Zrotation Xrotation Yrotation
        JOINT simRightHand
        {
          OFFSET -24.5783 0 1.19926e-005
          CHANNELS 3 Zrotation Xrotation Yrotation
          End Site
          {
            OFFSET -7.32568 1.52588e-005 0.0169305
          }
        }
      }
    }
  }
  JOINT simRightUpLeg
  {
    OFFSET -8.44614 -9.41038 0.835682
    CHANNELS 3 Zrotation Xrotation Yrotation
    JOINT simRightLeg
    {
      OFFSET -3.23466e-005 -40.9639 0
      CHANNELS 3 Zrotation Xrotation Yrotation
      JOINT simRightFoot
      {
        OFFSET 0 -40.9639 0
        CHANNELS 3 Zrotation Xrotation Yrotation
        End Site
        {
          OFFSET 0.50614 -9.67405 14.6709
        }
      }
    }
  }
  JOINT simLeftUpLeg
  {
    OFFSET 8.44614 -9.41038 0.835681
    CHANNELS 3 Zrotation Xrotation Yrotation
    JOINT simLeftLeg
    {
      OFFSET -0.00018133 -40.964 6.2497e-005
      CHANNELS 3 Zrotation Xrotation Yrotation
      JOINT simLeftFoot
      {
        OFFSET 0 -40.9639 0
        CHANNELS 3 Zrotation Xrotation Yrotation
        End Site
        {
          OFFSET -0.50614 -9.67405 14.6709
        }
      }
    }
  }
}
MOTION
Frames:	24
Frame Time:	0.0333333
384.974 94.6027 -11.8334 11.7881 -4.1714 -51.4802 5.77529 5.65537 10.8273 -55.5672 -16.2078 -0.863971 -1.21571e-005 -1.10301e-006 -95.3771 -26.2879 -63.5596 -30.3917 -8.48302 -5.27399 15.3364 51.9391 -3.52904 73.4628 -0.000574609 3.48917e-005 76.7815 172.035 -9.43998 -166.329 -37.1386 -2.80512 -22.6292 1.69298e-005 37.0838 0.121973 27.1191 -28.0433 8.46898 24.3293 -36.4911 27.9254 -0.000167508 39.7654 -0.10832 -23.2314 3.7679 -2.18043 
385.639 94.9108 -12.4188 11.0246 -5.80289 -52.2507 6.95192 5.61924 10.2916 -57.0232 -14.9504 -0.0394703 -1.21743e-005 -1.27251e-006 -96.2064 -23.8772 -62.0633 -29.2609 -8.76124 -5.79315 15.3831 52.6297 -3.52183 70.7244 -0.000576015 2.82443e-005 79.3329 172.22 -9.72866 -165.814 -37.9398 -2.5376 -21.4375 -9.82045e-006 37.154 0.130058 26.8684 -27.7509 8.43848 22.7968 -34.4558 25.5843 -0.000158687 37.8209 -0.0788893 -24.4713 5.37041 -2.46413 
386.269 95.1076 -12.9146 10.2658 -7.13276 -53.2814 7.91051 5.85561 9.83021 -58.3498 -13.7545 1.27627 -1.22047e-005 -1.52658e-006 -97.452 -22.5066 -59.8878 -28.1597 -8.84612 -6.61409 15.862 53.4071 -3.64902 68.1442 -0.00057712 2.15664e-005 81.8747 172.943 -8.87625 -165.447 -38.5871 -2.67194 -20.1612 2.72345e-005 37.4282 0.141197 26.7486 -27.5228 8.48043 21.5873 -32.5057 22.0323 1.89629e-005 35.9218 -0.0416722 -26.7677 6.41169 -3.20953 
386.887 95.2137 -13.2848 9.65383 -8.13521 -54.4928 8.32301 6.29881 9.45245 -59.6983 -12.8698 2.30321 -1.2243e-005 -1.79501e-006 -98.7719 -20.0785 -58.9483 -25.423 -7.91791 -8.20444 16.7589 54.7592 -4.0589 65.4172 -0.000578035 1.36991e-005 84.8492 173.714 -7.88728 -164.038 -39.1652 -3.21455 -18.9832 -2.61187e-005 37.7765 0.148487 26.8169 -27.219 8.64822 20.4342 -30.8772 17.2809 -1.75408e-005 34.5096 0.00133161 -28.6301 6.12217 -4.91501 
387.512 95.2218 -13.4796 9.14506 -8.60723 -55.8765 8.79044 6.64017 9.17237 -61.4158 -11.7188 3.29689 -1.22827e-005 -2.03587e-006 -99.9602 -18.0607 -58.5196 -23.4523 -6.81278 -9.30511 17.4955 55.975 -4.45991 62.6425 -0.000578465 7.543e-006 87.1665 173.294 -7.35875 -164.509 -39.4989 -4.14824 -18.0197 8.32379e-006 38.1038 0.144737 27.0476 -26.8009 8.98464 19.9572 -29.4435 13.8246 -0.000112302 34.0503 0.0127648 -28.4668 3.9372 -6.80599 
388.146 95.173 -13.5639 8.62762 -8.51568 -57.3199 9.32367 7.03843 8.65862 -63.1561 -10.5838 4.2754 -1.23095e-005 -2.18314e-006 -100.689 -17.2628 -56.5912 -22.4351 -5.66076 -10.2214 18.6305 57.1242 -4.77511 59.9407 -0.000578633 2.39573e-006 89.1004 172.369 -6.92897 -165.472 -39.3727 -5.28744 -17.1939 -1.4179e-005 38.2696 0.121259 27.3013 -26.2572 9.29673 21.0043 -28.5233 15.6454 9.18781e-006 36.1262 -0.0102194 -23.0445 -0.0377062 -7.11712 
388.832 94.977 -13.3648 8.10855 -7.82616 -58.804 10.0335 7.45766 7.96069 -64.6141 -9.23759 5.40147 -1.23401e-005 -2.33941e-006 -101.464 -16.1142 -54.485 -21.705 -4.61808 -11.296 19.6306 58.3709 -5.1844 57.3245 -0.000578635 -2.22656e-006 90.8361 173.003 -6.01162 -164.819 -38.9031 -6.63707 -16.4768 3.88019e-006 38.3985 0.1068 27.6913 -25.6166 9.61714 23.6102 -27.6407 22.6449 6.88256e-005 39.2863 0.0108748 -15.6512 -2.99563 -3.63216 
389.559 94.6197 -12.9532 7.63268 -6.81259 -59.9778 10.4125 8.10416 7.05095 -65.8127 -7.68826 5.87483 -1.23383e-005 -2.33055e-006 -101.42 -13.7944 -53.1473 -19.6589 -3.3997 -12.1138 21.0257 59.7367 -5.80907 54.729 -0.000578556 -5.39913e-006 92.0278 173.627 -4.4192 -164.805 -38.3093 -7.88181 -16.0199 -0.00212908 38.5491 0.107315 28.1956 -24.9836 9.9106 26.0963 -26.1259 27.8547 -5.61097e-005 40.0653 -0.0173544 -16.0605 -3.54707 0.455636 
390.398 94.2564 -12.6171 7.27845 -5.17118 -60.8743 10.9322 8.77953 6.24192 -66.7694 -6.23895 5.78301 -1.23069e-005 -2.16943e-006 -100.621 -13.0682 -52.4857 -18.1949 -2.36224 -12.8486 22.2077 60.8294 -6.43608 52.3359 -0.00057854 -5.83241e-006 92.1906 173.135 -3.22855 -165.9 -37.2088 -9.41364 -15.836 -2.95593e-005 38.7689 0.102787 28.533 -24.3595 9.93323 28.048 -26.4539 28.9772 2.66642e-005 40.5014 -0.0428675 -16.7716 -5.36432 0.919958 
391.366 93.9062 -12.2229 7.20898 -3.2886 -61.4315 11.1377 9.5889 5.6813 -67.3487 -4.68042 5.31393 -1.22645e-005 -1.92963e-006 -99.4356 -12.8003 -51.9723 -17.7178 -1.08339 -13.6404 23.5175 61.9624 -6.89412 50.0735 -0.000578574 -4.85154e-006 91.822 172.068 -3.15049 -166.379 -36.1999 -11.0608 -16.1357 -3.59915e-005 38.9598 0.0959508 28.8932 -23.6004 9.94625 30.6428 -28.5553 29.8882 -2.19403e-005 42.7849 -0.037727 -17.1598 -5.95336 0.860645 
392.361 93.6282 -11.8503 7.35325 -1.30954 -61.7568 10.5082 10.8504 5.38187 -67.199 -3.39334 4.48431 -1.22251e-005 -1.67512e-006 -98.1819 -12.921 -50.9655 -17.293 0.410673 -14.7734 24.3114 63.7647 -7.5174 47.8388 -0.000578607 -3.69249e-006 91.3866 172.313 -3.1334 -167.218 -35.1747 -12.6875 -16.7253 -3.34794e-006 38.9469 0.0878014 29.1335 -22.7402 9.83797 33.5138 -30.9963 31.3278 -7.52048e-006 45.2195 -0.0207765 -17.0988 -5.90697 0.512171 
393.34 93.4524 -11.5215 7.67111 0.808573 -61.8898 9.37747 12.3077 5.23704 -66.5046 -2.31913 3.36139 -1.21837e-005 -1.35683e-006 -96.6194 -12.0458 -49.873 -16.6911 2.11704 -16.0297 24.8495 65.6519 -7.72118 45.8937 -0.000578649 -9.34372e-007 90.3509 172.286 -2.91875 -168.295 -34.0454 -14.2474 -17.585 4.71506e-006 38.6268 0.0785845 29.2292 -21.7578 9.60223 36.3917 -33.0756 33.3669 6.50114e-005 46.6311 -0.0129443 -16.9932 -5.82093 -0.0137349 
394.28 93.3821 -11.2479 8.2845 3.11898 -61.8685 7.96463 13.6182 5.39838 -65.7833 -1.78893 2.37022 -1.21492e-005 -1.01591e-006 -94.9514 -11.3884 -48.8907 -16.1061 3.34865 -17.4068 25.1468 67.2306 -7.43114 44.1596 -0.000578608 3.65768e-006 88.6264 171.614 -2.78419 -169.786 -32.8718 -15.8772 -18.7716 4.18441e-005 37.9943 0.0684901 29.2071 -20.6424 9.24818 39.229 -35.1761 35.5405 0.000235819 47.3579 -0.00836215 -16.8134 -5.72606 -0.464092 
395.172 93.4254 -11.0543 9.14345 5.57629 -61.6481 6.27726 14.8484 5.69574 -65.062 -1.85276 1.61693 -1.21242e-005 -6.67916e-007 -93.253 -12.3053 -47.5139 -16.8977 4.39354 -18.6146 25.4875 68.5303 -6.92873 42.8173 -0.000578368 9.29347e-006 86.5082 171.102 -2.61395 -171.27 -31.7069 -17.5817 -20.2598 -3.6263e-005 37.135 0.0571846 29.0441 -19.4149 8.73518 41.95 -37.555 37.5022 0.000231578 47.5955 -0.000830998 -16.5792 -5.35253 -0.5462 
395.995 93.5489 -10.901 10.2155 8.1206 -61.2929 4.41365 15.8891 6.27714 -64.1037 -1.71982 0.890666 -1.21072e-005 -2.13001e-007 -91.0369 -13.5752 -46.2088 -19.3299 5.25817 -19.1923 25.3773 69.3908 -6.31168 41.7987 -0.000577905 1.50719e-005 84.3314 170.585 -2.4183 -172.229 -30.5813 -19.314 -21.9425 -7.9329e-005 36.0659 0.0453851 28.7799 -18.1387 8.0808 44.6039 -40.1341 39.3348 -0.000404329 47.4627 0.00859033 -16.3461 -4.74604 -0.349918 
396.722 93.6996 -10.7587 11.3875 10.7153 -60.8288 2.50953 16.7616 7.08397 -63.151 -1.53795 0.157758 -1.21075e-005 2.28324e-007 -88.8885 -14.3886 -45.8062 -21.872 4.72804 -19.4666 24.0249 69.9566 -5.54008 41.0222 -0.000577147 2.13756e-005 81.9471 170.445 -2.6747 -173.364 -29.4783 -20.9574 -23.7719 3.17598e-005 34.8387 0.0341006 28.4682 -16.8663 7.3852 47.3447 -42.7448 41.2761 -0.00138814 47.1235 0.0179216 -16.0888 -4.03609 -0.132234 
397.284 93.8509 -10.5908 12.4872 13.3339 -60.2144 0.64342 17.4661 7.96455 -62.528 -1.63397 -0.413112 -1.21212e-005 6.11773e-007 -87.0207 -15.3312 -45.329 -23.1823 3.87684 -19.6061 22.337 70.5149 -4.6967 40.5148 -0.000576022 2.82032e-005 79.3486 170.403 -4.20373 -174.921 -28.3276 -22.322 -25.685 8.28739e-006 33.5098 0.0239921 28.1682 -15.6589 6.72833 50.2324 -45.2196 43.3669 -0.0110797 46.7004 0.0258741 -15.7919 -3.29484 -0.0742468 
397.685 93.9959 -10.3962 13.5033 15.8681 -59.4464 -1.24739 18.0105 8.9477 -62.1083 -1.94657 -1.0907 -1.21467e-005 9.86368e-007 -85.193 -16.2995 -44.3921 -23.6668 3.555 -19.5421 20.8606 70.8575 -3.91949 40.2942 -0.000574678 3.45949e-005 76.8959 170.179 -6.06927 -175.246 -27.2404 -23.3972 -27.6755 4.11123e-006 32.1596 0.0153302 27.9144 -14.5458 6.15333 53.0244 -47.5864 45.409 0.0134713 46.218 0.0323044 -15.4754 -2.57278 -0.105985 
397.917 94.1331 -10.1671 14.3063 18.3706 -58.5823 -2.82221 18.4521 10.0356 -61.8565 -1.89536 -1.67764 -1.21833e-005 1.35311e-006 -83.3988 -16.873 -43.498 -24.8198 2.90655 -19.4277 19.0299 71.0703 -3.32889 40.303 -0.000573207 4.03972e-005 74.6481 170.085 -7.30266 -174.741 -26.0578 -24.188 -29.6191 -3.3272e-005 30.8396 0.00800243 27.6903 -13.547 5.67085 55.9108 -49.6563 47.5257 0.00157972 45.7341 0.0368425 -15.1346 -1.90928 -0.313516 
398.007 94.2594 -9.90699 14.9167 20.715 -57.7178 -4.25814 18.8002 11.0804 -61.6709 -1.64198 -1.93977 -1.22196e-005 1.63639e-006 -82.0085 -17.3615 -43.3147 -26.0774 2.65382 -19.8717 17.5766 71.345 -2.73059 40.6332 -0.000571467 4.62695e-005 72.3482 170.228 -7.05631 -175.098 -24.8303 -24.7393 -31.3669 0.0011656 29.5471 0.00212659 27.4922 -12.6619 5.24067 58.7281 -51.4056 49.6359 0.00129424 45.3106 0.0381142 -14.8129 -1.34602 -0.653881 
397.985 94.3613 -9.61239 15.3133 22.6426 -56.8314 -5.72495 19.1311 11.7776 -61.3383 -1.87826 -2.12276 -1.22638e-005 1.92534e-006 -80.5856 -18.3878 -43.7152 -26.7224 2.85655 -20.5637 16.4651 71.7088 -1.73252 41.3919 -0.000569332 5.25099e-005 69.8714 170.469 -6.66879 -175.849 -23.7439 -24.9295 -32.8635 0.000996876 28.3113 -0.000363021 27.3302 -11.8966 4.86833 61.0436 -52.8789 51.2756 0.000482538 45.0456 0.0383477 -14.5807 -0.952222 -0.945839 
397.829 94.4392 -9.36214 15.5363 24.2762 -55.9762 -6.87354 19.1508 12.5013 -61.2922 -2.27617 -2.27656 -1.2316e-005 2.21713e-006 -79.1427 -19.192 -43.8069 -26.6002 1.97648 -20.4455 15.1352 71.9576 -0.735759 42.2005 -0.000566896 5.87302e-005 67.3628 170.175 -7.38316 -177.236 -22.7436 -24.9258 -34.1047 0.000811637 27.2586 -0.00207374 27.2268 -11.3159 4.56619 63.0434 -54.1252 52.5443 -0.000206138 44.9504 0.0376934 -14.4643 -0.720831 -1.15824 
397.594 94.4748 -9.14486 15.5128 25.5487 -55.157 -7.6151 19.0416 13.3839 -61.5294 -2.43131 -2.51568 -1.23821e-005 2.53792e-006 -77.5482 -19.4477 -43.4388 -27.4178 1.2158 -20.3258 14.4494 72.0423 0.0310221 43.1045 -0.000564669 6.38084e-005 65.2806 170.065 -8.19156 -177.477 -21.8609 -24.7432 -35.0424 0.000668114 26.5362 -0.00309068 27.1824 -10.9758 4.35539 64.6417 -55.0413 53.4566 -0.00078943 45.0106 0.0362682 -14.4431 -0.609401 -1.39942 
397.287 94.493 -8.94242 15.2611 26.5202 -54.3653 -8.10775 18.9179 14.0716 -61.8132 -2.64695 -2.65726 -1.24464e-005 2.81331e-006 -76.1716 -19.5367 -43.3823 -28.278 0.639658 -20.4452 14.0593 71.9663 0.880438 44.2348 -0.000562452 6.84199e-005 63.3591 170.139 -8.3096 -178.357 -21.0147 -24.3638 -35.6986 0.00058918 26.0125 -0.00348068 27.1478 -10.8125 4.19508 65.8197 -55.6458 53.9793 -0.00121574 45.1496 0.034141 -14.4971 -0.581475 -1.66728 
